<svg width="10" height="6" viewBox="0 0 10 6" fill="none" xmlns="http://www.w3.org/2000/svg">
<path d="M9.80654 0.806574C9.74457 0.744088 9.67083 0.694492 9.5896 0.660646C9.50836 0.6268 9.42122 0.609375 9.33321 0.609375C9.2452 0.609375 9.15807 0.6268 9.07683 0.660646C8.99559 0.694492 8.92185 0.744088 8.85988 0.806574L5.80654 3.85991C5.74457 3.92239 5.67084 3.97199 5.5896 4.00583C5.50836 4.03968 5.42122 4.05711 5.33321 4.05711C5.2452 4.05711 5.15807 4.03968 5.07683 4.00583C4.99559 3.97199 4.92185 3.92239 4.85988 3.85991L1.80654 0.806574C1.74457 0.744088 1.67083 0.694492 1.5896 0.660646C1.50836 0.6268 1.42122 0.609375 1.33321 0.609375C1.2452 0.609375 1.15807 0.6268 1.07683 0.660646C0.995587 0.694492 0.921853 0.744088 0.859877 0.806574C0.73571 0.931482 0.666016 1.10045 0.666016 1.27657C0.666016 1.4527 0.73571 1.62167 0.859877 1.74657L3.91988 4.80657C4.29488 5.18111 4.80321 5.39148 5.33321 5.39148C5.86321 5.39148 6.37154 5.18111 6.74654 4.80657L9.80654 1.74657C9.93071 1.62167 10.0004 1.4527 10.0004 1.27657C10.0004 1.10045 9.93071 0.931482 9.80654 0.806574Z" fill="#4B4B4B"/>
</svg>
